<mxfile host="65bd71144e">
    <diagram id="_t_SZ6Al54fqi31fHgGA" name="Page-1">
        <mxGraphModel dx="832" dy="1613" grid="1" gridSize="10" guides="1" tooltips="1" connect="1" arrows="1" fold="1" page="1" pageScale="1" pageWidth="850" pageHeight="1100" math="0" shadow="0">
            <root>
                <mxCell id="0"/>
                <mxCell id="1" parent="0"/>
                <mxCell id="25" style="edgeStyle=none;html=1;exitX=0.5;exitY=0;exitDx=0;exitDy=0;fontFamily=Verdana;" edge="1" parent="1" source="11">
                    <mxGeometry relative="1" as="geometry">
                        <mxPoint x="310" y="30" as="targetPoint"/>
                    </mxGeometry>
                </mxCell>
                <mxCell id="11" value="COMPONENT 1&lt;br&gt;const[name, setName] = useState('Moumita');&lt;br&gt;" style="rounded=1;whiteSpace=wrap;html=1;fontFamily=Verdana;labelBackgroundColor=#EBFFF5;fontColor=#18141D;" vertex="1" parent="1">
                    <mxGeometry x="207.82" width="192.18" height="60" as="geometry"/>
                </mxCell>
                <mxCell id="12" value="COMP 2&lt;br&gt;" style="rounded=1;whiteSpace=wrap;html=1;fontFamily=Verdana;" vertex="1" parent="1">
                    <mxGeometry x="216.88" y="70" width="133.12" height="30" as="geometry"/>
                </mxCell>
                <mxCell id="13" value="COMP 3&lt;br&gt;" style="rounded=1;whiteSpace=wrap;html=1;fontFamily=Verdana;" vertex="1" parent="1">
                    <mxGeometry x="230.32" y="110" width="106.25" height="30" as="geometry"/>
                </mxCell>
                <mxCell id="14" value="COMP 4&lt;br&gt;{name}" style="rounded=1;whiteSpace=wrap;html=1;fontFamily=Verdana;labelBackgroundColor=#EBFFF5;fontColor=#000000;" vertex="1" parent="1">
                    <mxGeometry x="233.20999999999998" y="150" width="100.46" height="30" as="geometry"/>
                </mxCell>
                <mxCell id="16" value="" style="endArrow=classic;startArrow=classic;html=1;fontFamily=Verdana;entryX=-0.005;entryY=0.414;entryDx=0;entryDy=0;entryPerimeter=0;exitX=0;exitY=0.5;exitDx=0;exitDy=0;" edge="1" parent="1" source="14" target="11">
                    <mxGeometry width="50" height="50" relative="1" as="geometry">
                        <mxPoint x="200" y="320" as="sourcePoint"/>
                        <mxPoint x="130" y="130" as="targetPoint"/>
                        <Array as="points">
                            <mxPoint x="110" y="160"/>
                            <mxPoint x="130" y="90"/>
                            <mxPoint x="120" y="120"/>
                            <mxPoint x="150" y="80"/>
                        </Array>
                    </mxGeometry>
                </mxCell>
                <mxCell id="17" value="PASSING STATE {name} from&lt;br&gt;COMP 1 &lt;br&gt;TO &lt;br&gt;COMP 4" style="text;html=1;strokeColor=none;fillColor=none;align=center;verticalAlign=middle;whiteSpace=wrap;rounded=0;fontFamily=Verdana;fontColor=#FFFF00;" vertex="1" parent="1">
                    <mxGeometry x="20" y="60" width="110" height="100" as="geometry"/>
                </mxCell>
                <mxCell id="33" value="STEPS" style="swimlane;fontStyle=0;childLayout=stackLayout;horizontal=1;startSize=30;horizontalStack=0;resizeParent=1;resizeParentMax=0;resizeLast=0;collapsible=1;marginBottom=0;whiteSpace=wrap;html=1;fontFamily=Verdana;fontSize=14;fontColor=#80FF00;labelBackgroundColor=#000000;" vertex="1" parent="1">
                    <mxGeometry x="359.07" y="80" width="135" height="200" as="geometry"/>
                </mxCell>
                <mxCell id="34" value="1. Create context using createContex() component1.&lt;br style=&quot;font-size: 12px;&quot;&gt;&lt;br style=&quot;font-size: 12px;&quot;&gt;2.Add a Provider to send State.&lt;br style=&quot;font-size: 12px;&quot;&gt;&lt;br style=&quot;font-size: 12px;&quot;&gt;3.To receive state use useContext()" style="text;strokeColor=none;fillColor=none;align=left;verticalAlign=middle;spacingLeft=4;spacingRight=4;overflow=hidden;points=[[0,0.5],[1,0.5]];portConstraint=eastwest;rotatable=0;whiteSpace=wrap;html=1;fontFamily=Verdana;fontSize=12;fontColor=#99FF33;" vertex="1" parent="33">
                    <mxGeometry y="30" width="135" height="170" as="geometry"/>
                </mxCell>
                <mxCell id="43" value="&#10;&lt;div style=&quot;color: rgb(255, 255, 255); background-color: rgb(0, 0, 44); font-family: Consolas, &amp;quot;Courier New&amp;quot;, monospace; font-weight: normal; font-size: 14px; line-height: 19px;&quot;&gt;&lt;div&gt;&lt;span style=&quot;color: #ff006a;&quot;&gt;import&lt;/span&gt;&lt;span style=&quot;color: #ffffff;&quot;&gt; &lt;/span&gt;&lt;span style=&quot;color: #eeffff;&quot;&gt;React&lt;/span&gt;&lt;span style=&quot;color: #ffffff;&quot;&gt;, { &lt;/span&gt;&lt;span style=&quot;color: #eeffff;&quot;&gt;useState&lt;/span&gt;&lt;span style=&quot;color: #ffffff;&quot;&gt; } &lt;/span&gt;&lt;span style=&quot;color: #ff006a;&quot;&gt;from&lt;/span&gt;&lt;span style=&quot;color: #ffffff;&quot;&gt; &lt;/span&gt;&lt;span style=&quot;color: #ffffff;&quot;&gt;'&lt;/span&gt;&lt;span style=&quot;color: #eeff00;&quot;&gt;react&lt;/span&gt;&lt;span style=&quot;color: #ffffff;&quot;&gt;'&lt;/span&gt;&lt;/div&gt;&lt;div&gt;&lt;span style=&quot;color: #ff006a;&quot;&gt;import&lt;/span&gt;&lt;span style=&quot;color: #ffffff;&quot;&gt; { &lt;/span&gt;&lt;span style=&quot;color: #eeffff;&quot;&gt;createContext&lt;/span&gt;&lt;span style=&quot;color: #ffffff;&quot;&gt; } &lt;/span&gt;&lt;span style=&quot;color: #ff006a;&quot;&gt;from&lt;/span&gt;&lt;span style=&quot;color: #ffffff;&quot;&gt; &lt;/span&gt;&lt;span style=&quot;color: #ffffff;&quot;&gt;'&lt;/span&gt;&lt;span style=&quot;color: #eeff00;&quot;&gt;react&lt;/span&gt;&lt;span style=&quot;color: #ffffff;&quot;&gt;'&lt;/span&gt;&lt;span style=&quot;color: #ffffff;&quot;&gt;;&lt;/span&gt;&lt;/div&gt;&lt;div&gt;&lt;span style=&quot;color: #ff006a;&quot;&gt;import&lt;/span&gt;&lt;span style=&quot;color: #ffffff;&quot;&gt; &lt;/span&gt;&lt;span style=&quot;color: #eeffff;&quot;&gt;Sibling&lt;/span&gt;&lt;span style=&quot;color: #ffffff;&quot;&gt; &lt;/span&gt;&lt;span style=&quot;color: #ff006a;&quot;&gt;from&lt;/span&gt;&lt;span style=&quot;color: #ffffff;&quot;&gt; &lt;/span&gt;&lt;span style=&quot;color: #ffffff;&quot;&gt;'&lt;/span&gt;&lt;span style=&quot;color: #eeff00;&quot;&gt;./Sibling&lt;/span&gt;&lt;span style=&quot;color: #ffffff;&quot;&gt;'&lt;/span&gt;&lt;span style=&quot;color: #ffffff;&quot;&gt;;&lt;/span&gt;&lt;/div&gt;&lt;br&gt;&lt;div&gt;&lt;span style=&quot;color: #ff006a;&quot;&gt;export&lt;/span&gt;&lt;span style=&quot;color: #ffffff;&quot;&gt; &lt;/span&gt;&lt;span style=&quot;color: #ff0062;&quot;&gt;const&lt;/span&gt;&lt;span style=&quot;color: #ffffff;&quot;&gt; &lt;/span&gt;&lt;span style=&quot;color: #eeffff;&quot;&gt;MyContext&lt;/span&gt;&lt;span style=&quot;color: #ffffff;&quot;&gt; &lt;/span&gt;&lt;span style=&quot;color: #ff0062;&quot;&gt;=&lt;/span&gt;&lt;span style=&quot;color: #20dd20;&quot;&gt; &lt;/span&gt;&lt;span style=&quot;color: #00ffff;&quot;&gt;createContext&lt;/span&gt;&lt;span style=&quot;color: #20dd20;&quot;&gt;()&lt;/span&gt;&lt;span style=&quot;color: #ffffff;&quot;&gt;;&lt;/span&gt;&lt;/div&gt;&lt;div&gt;&lt;span style=&quot;color: #ffffff;&quot;&gt;&amp;nbsp; &lt;/span&gt;&lt;/div&gt;&lt;div&gt;&lt;span style=&quot;color: #ff0062;&quot;&gt;const&lt;/span&gt;&lt;span style=&quot;color: #ffffff;&quot;&gt; &lt;/span&gt;&lt;span style=&quot;color: #00ffff;&quot;&gt;Component1&lt;/span&gt;&lt;span style=&quot;color: #ffffff;&quot;&gt; &lt;/span&gt;&lt;span style=&quot;color: #ff0062;&quot;&gt;=&lt;/span&gt;&lt;span style=&quot;color: #ffffff;&quot;&gt; () &lt;/span&gt;&lt;span style=&quot;color: #ff0062;&quot;&gt;=&amp;gt;&lt;/span&gt;&lt;span style=&quot;color: #ffffff;&quot;&gt; {&lt;/span&gt;&lt;/div&gt;&lt;div&gt;&lt;span style=&quot;color: #ffffff;&quot;&gt;&amp;nbsp; &lt;/span&gt;&lt;span style=&quot;color: #ff0062;&quot;&gt;const&lt;/span&gt;&lt;span style=&quot;color: #ffffff;&quot;&gt;[&lt;/span&gt;&lt;span style=&quot;color: #eeffff;&quot;&gt;name&lt;/span&gt;&lt;span style=&quot;color: #ffffff;&quot;&gt;, &lt;/span&gt;&lt;span style=&quot;color: #eeffff;&quot;&gt;setName&lt;/span&gt;&lt;span style=&quot;color: #ffffff;&quot;&gt;] &lt;/span&gt;&lt;span style=&quot;color: #ff0062;&quot;&gt;=&lt;/span&gt;&lt;span style=&quot;color: #20dd20;&quot;&gt; &lt;/span&gt;&lt;span style=&quot;color: #00ffff;&quot;&gt;useState&lt;/span&gt;&lt;span style=&quot;color: #20dd20;&quot;&gt;(&lt;/span&gt;&lt;span style=&quot;color: #ffffff;&quot;&gt;'&lt;/span&gt;&lt;span style=&quot;color: #eeff00;&quot;&gt;Moumita Murmu&lt;/span&gt;&lt;span style=&quot;color: #ffffff;&quot;&gt;'&lt;/span&gt;&lt;span style=&quot;color: #20dd20;&quot;&gt;)&lt;/span&gt;&lt;span style=&quot;color: #ffffff;&quot;&gt;;&lt;/span&gt;&lt;/div&gt;&lt;br&gt;&lt;div&gt;&lt;span style=&quot;color: #ffffff;&quot;&gt;&amp;nbsp; &lt;/span&gt;&lt;span style=&quot;color: #ff006a;&quot;&gt;return&lt;/span&gt;&lt;span style=&quot;color: #ffffff;&quot;&gt; (&lt;/span&gt;&lt;/div&gt;&lt;div&gt;&lt;span style=&quot;color: #ffffff;&quot;&gt;&amp;nbsp; &amp;nbsp; &lt;/span&gt;&lt;span style=&quot;color: #ffffff;&quot;&gt;&amp;lt;&lt;/span&gt;&lt;span style=&quot;color: #ff0077;&quot;&gt;div&lt;/span&gt;&lt;span style=&quot;color: #ffffff;&quot;&gt;&amp;gt;&lt;/span&gt;&lt;/div&gt;&lt;div&gt;&lt;span style=&quot;color: #ffffff;&quot;&gt;&amp;nbsp; &amp;nbsp; &amp;lt;&lt;/span&gt;&lt;span style=&quot;color: #ffcb6b;&quot;&gt;MyContext.Provider&lt;/span&gt;&lt;span style=&quot;color: #ffffff;&quot;&gt; &lt;/span&gt;&lt;span style=&quot;color: #00fff2;&quot;&gt;value&lt;/span&gt;&lt;span style=&quot;color: #ff0062;&quot;&gt;=&lt;/span&gt;&lt;span style=&quot;color: #ffffff;&quot;&gt;{&lt;/span&gt;&lt;span style=&quot;color: #eeffff;&quot;&gt;name&lt;/span&gt;&lt;span style=&quot;color: #ffffff;&quot;&gt;}&amp;gt;&lt;/span&gt;&lt;/div&gt;&lt;div&gt;&lt;span style=&quot;color: #ffffff;&quot;&gt;&amp;nbsp; &amp;nbsp; &amp;lt;&lt;/span&gt;&lt;span style=&quot;color: #ff0077;&quot;&gt;h1&lt;/span&gt;&lt;span style=&quot;color: #ffffff;&quot;&gt;&amp;gt;&lt;/span&gt;&lt;span style=&quot;color: #ffffff;&quot;&gt;Hi I AM {&lt;/span&gt;&lt;span style=&quot;color: #eeffff;&quot;&gt;name&lt;/span&gt;&lt;span style=&quot;color: #ffffff;&quot;&gt;}&lt;/span&gt;&lt;span style=&quot;color: #ffffff;&quot;&gt;&amp;lt;/&lt;/span&gt;&lt;span style=&quot;color: #ff0077;&quot;&gt;h1&lt;/span&gt;&lt;span style=&quot;color: #ffffff;&quot;&gt;&amp;gt;&lt;/span&gt;&lt;/div&gt;&lt;div&gt;&lt;span style=&quot;color: #ffffff;&quot;&gt;&amp;nbsp; &amp;nbsp; &amp;nbsp;&amp;lt;&lt;/span&gt;&lt;span style=&quot;color: #ffcb6b;&quot;&gt;Sibling&lt;/span&gt;&lt;span style=&quot;color: #ffffff;&quot;&gt;/&amp;gt;&lt;/span&gt;&lt;/div&gt;&lt;div&gt;&lt;span style=&quot;color: #ffffff;&quot;&gt;&amp;nbsp; &amp;nbsp; &lt;/span&gt;&lt;span style=&quot;color: #ffffff;&quot;&gt;&amp;lt;/&lt;/span&gt;&lt;span style=&quot;color: #ffcb6b;&quot;&gt;MyContext.Provider&lt;/span&gt;&lt;span style=&quot;color: #ffffff;&quot;&gt;&amp;gt;&lt;/span&gt;&lt;/div&gt;&lt;div&gt;&lt;span style=&quot;color: #ffffff;&quot;&gt;&amp;nbsp; &amp;nbsp; &amp;nbsp;&lt;/span&gt;&lt;span style=&quot;color: #ffffff;&quot;&gt;&amp;lt;/&lt;/span&gt;&lt;span style=&quot;color: #ff0077;&quot;&gt;div&lt;/span&gt;&lt;span style=&quot;color: #ffffff;&quot;&gt;&amp;gt;&lt;/span&gt;&lt;/div&gt;&lt;div&gt;&lt;span style=&quot;color: #ffffff;&quot;&gt;&amp;nbsp; )&lt;/span&gt;&lt;/div&gt;&lt;div&gt;&lt;span style=&quot;color: #ffffff;&quot;&gt;}&lt;/span&gt;&lt;/div&gt;&lt;div&gt;&lt;span style=&quot;color: #ff006a;&quot;&gt;export&lt;/span&gt;&lt;span style=&quot;color: #ffffff;&quot;&gt; &lt;/span&gt;&lt;span style=&quot;color: #ff006a;&quot;&gt;default&lt;/span&gt;&lt;span style=&quot;color: #ffffff;&quot;&gt; &lt;/span&gt;&lt;span style=&quot;color: #eeffff;&quot;&gt;Component1&lt;/span&gt;&lt;span style=&quot;color: #ffffff;&quot;&gt;;&lt;/span&gt;&lt;/div&gt;&lt;br&gt;&lt;/div&gt;&#10;&#10;" style="whiteSpace=wrap;html=1;aspect=fixed;fontFamily=Verdana;" vertex="1" parent="1">
                    <mxGeometry x="510" y="170" width="330" height="330" as="geometry"/>
                </mxCell>
                <mxCell id="19" value="&lt;h1 style=&quot;font-size: 13px;&quot;&gt;CONTEXT&lt;/h1&gt;&lt;p style=&quot;font-size: 13px;&quot;&gt;to manage state globally we&lt;/p&gt;&lt;p style=&quot;font-size: 13px;&quot;&gt;use context with useState.&lt;/p&gt;" style="text;html=1;strokeColor=none;fillColor=none;spacing=5;spacingTop=-20;whiteSpace=wrap;overflow=hidden;rounded=0;fontFamily=Verdana;fontSize=13;fontColor=#99FF33;" vertex="1" parent="1">
                    <mxGeometry x="680" y="20" width="150" height="100" as="geometry"/>
                </mxCell>
                <mxCell id="46" style="edgeStyle=none;html=1;fontFamily=Verdana;fontSize=12;" edge="1" parent="1" source="43" target="43">
                    <mxGeometry relative="1" as="geometry"/>
                </mxCell>
                <mxCell id="47" value="&#10;&lt;div style=&quot;color: rgb(255, 255, 255); background-color: rgb(0, 0, 44); font-family: Consolas, &amp;quot;Courier New&amp;quot;, monospace; font-weight: normal; font-size: 14px; line-height: 19px;&quot;&gt;&lt;div&gt;&lt;span style=&quot;color: #ff006a;&quot;&gt;import&lt;/span&gt;&lt;span style=&quot;color: #ffffff;&quot;&gt; &lt;/span&gt;&lt;span style=&quot;color: #eeffff;&quot;&gt;React&lt;/span&gt;&lt;span style=&quot;color: #ffffff;&quot;&gt;, { &lt;/span&gt;&lt;span style=&quot;color: #eeffff;&quot;&gt;useContext&lt;/span&gt;&lt;span style=&quot;color: #ffffff;&quot;&gt; } &lt;/span&gt;&lt;span style=&quot;color: #ff006a;&quot;&gt;from&lt;/span&gt;&lt;span style=&quot;color: #ffffff;&quot;&gt; &lt;/span&gt;&lt;span style=&quot;color: #ffffff;&quot;&gt;'&lt;/span&gt;&lt;span style=&quot;color: #eeff00;&quot;&gt;react&lt;/span&gt;&lt;span style=&quot;color: #ffffff;&quot;&gt;'&lt;/span&gt;&lt;/div&gt;&lt;div&gt;&lt;span style=&quot;color: #ff006a;&quot;&gt;import&lt;/span&gt;&lt;span style=&quot;color: #ffffff;&quot;&gt; { &lt;/span&gt;&lt;span style=&quot;color: #eeffff;&quot;&gt;MyContext&lt;/span&gt;&lt;span style=&quot;color: #ffffff;&quot;&gt; } &lt;/span&gt;&lt;span style=&quot;color: #ff006a;&quot;&gt;from&lt;/span&gt;&lt;span style=&quot;color: #ffffff;&quot;&gt; &lt;/span&gt;&lt;span style=&quot;color: #ffffff;&quot;&gt;'&lt;/span&gt;&lt;span style=&quot;color: #eeff00;&quot;&gt;./App&lt;/span&gt;&lt;span style=&quot;color: #ffffff;&quot;&gt;'&lt;/span&gt;&lt;span style=&quot;color: #ffffff;&quot;&gt;;&lt;/span&gt;&lt;/div&gt;&lt;br&gt;&lt;div&gt;&lt;span style=&quot;color: #ff0062;&quot;&gt;const&lt;/span&gt;&lt;span style=&quot;color: #ffffff;&quot;&gt; &lt;/span&gt;&lt;span style=&quot;color: #00ffff;&quot;&gt;Sibling&lt;/span&gt;&lt;span style=&quot;color: #ffffff;&quot;&gt; &lt;/span&gt;&lt;span style=&quot;color: #ff0062;&quot;&gt;=&lt;/span&gt;&lt;span style=&quot;color: #ffffff;&quot;&gt; () &lt;/span&gt;&lt;span style=&quot;color: #ff0062;&quot;&gt;=&amp;gt;&lt;/span&gt;&lt;span style=&quot;color: #ffffff;&quot;&gt; {&lt;/span&gt;&lt;/div&gt;&lt;div&gt;&lt;span style=&quot;color: #ffffff;&quot;&gt;&amp;nbsp; &amp;nbsp; &lt;/span&gt;&lt;span style=&quot;color: #ff0062;&quot;&gt;const&lt;/span&gt;&lt;span style=&quot;color: #ffffff;&quot;&gt; &lt;/span&gt;&lt;span style=&quot;color: #eeffff;&quot;&gt;myValue&lt;/span&gt;&lt;span style=&quot;color: #ffffff;&quot;&gt; &lt;/span&gt;&lt;span style=&quot;color: #ff0062;&quot;&gt;=&lt;/span&gt;&lt;span style=&quot;color: #20dd20;&quot;&gt; &lt;/span&gt;&lt;span style=&quot;color: #00ffff;&quot;&gt;useContext&lt;/span&gt;&lt;span style=&quot;color: #20dd20;&quot;&gt;(&lt;/span&gt;&lt;span style=&quot;color: #eeffff;&quot;&gt;MyContext&lt;/span&gt;&lt;span style=&quot;color: #20dd20;&quot;&gt;)&lt;/span&gt;&lt;span style=&quot;color: #ffffff;&quot;&gt;;&lt;/span&gt;&lt;/div&gt;&lt;div&gt;&lt;span style=&quot;color: #ffffff;&quot;&gt;&amp;nbsp; &lt;/span&gt;&lt;span style=&quot;color: #ff006a;&quot;&gt;return&lt;/span&gt;&lt;span style=&quot;color: #ffffff;&quot;&gt; (&lt;/span&gt;&lt;/div&gt;&lt;div&gt;&lt;span style=&quot;color: #ffffff;&quot;&gt;&amp;nbsp; &amp;nbsp; &lt;/span&gt;&lt;span style=&quot;color: #ffffff;&quot;&gt;&amp;lt;&lt;/span&gt;&lt;span style=&quot;color: #ff0077;&quot;&gt;div&lt;/span&gt;&lt;span style=&quot;color: #ffffff;&quot;&gt;&amp;gt;&lt;/span&gt;&lt;/div&gt;&lt;div&gt;&lt;span style=&quot;color: #ffffff;&quot;&gt;&amp;nbsp; &amp;nbsp; &amp;nbsp; &amp;lt;&lt;/span&gt;&lt;span style=&quot;color: #ff0077;&quot;&gt;h1&lt;/span&gt;&lt;span style=&quot;color: #ffffff;&quot;&gt;&amp;gt;&lt;/span&gt;&lt;span style=&quot;color: #ffffff;&quot;&gt;I AM SIBLING OF {&lt;/span&gt;&lt;span style=&quot;color: #eeffff;&quot;&gt;myValue&lt;/span&gt;&lt;span style=&quot;color: #ffffff;&quot;&gt;}&lt;/span&gt;&lt;span style=&quot;color: #ffffff;&quot;&gt;&amp;lt;/&lt;/span&gt;&lt;span style=&quot;color: #ff0077;&quot;&gt;h1&lt;/span&gt;&lt;span style=&quot;color: #ffffff;&quot;&gt;&amp;gt;&lt;/span&gt;&lt;/div&gt;&lt;div&gt;&lt;span style=&quot;color: #ffffff;&quot;&gt;&amp;nbsp; &amp;nbsp; &lt;/span&gt;&lt;span style=&quot;color: #ffffff;&quot;&gt;&amp;lt;/&lt;/span&gt;&lt;span style=&quot;color: #ff0077;&quot;&gt;div&lt;/span&gt;&lt;span style=&quot;color: #ffffff;&quot;&gt;&amp;gt;&lt;/span&gt;&lt;/div&gt;&lt;div&gt;&lt;span style=&quot;color: #ffffff;&quot;&gt;&amp;nbsp; )&lt;/span&gt;&lt;/div&gt;&lt;div&gt;&lt;span style=&quot;color: #ffffff;&quot;&gt;}&lt;/span&gt;&lt;/div&gt;&lt;br&gt;&lt;div&gt;&lt;span style=&quot;color: #ff006a;&quot;&gt;export&lt;/span&gt;&lt;span style=&quot;color: #ffffff;&quot;&gt; &lt;/span&gt;&lt;span style=&quot;color: #ff006a;&quot;&gt;default&lt;/span&gt;&lt;span style=&quot;color: #ffffff;&quot;&gt; &lt;/span&gt;&lt;span style=&quot;color: #eeffff;&quot;&gt;Sibling&lt;/span&gt;&lt;span style=&quot;color: #ffffff;&quot;&gt;;&lt;/span&gt;&lt;/div&gt;&lt;br&gt;&lt;/div&gt;&#10;&#10;" style="whiteSpace=wrap;html=1;aspect=fixed;fontFamily=Verdana;fontSize=12;" vertex="1" parent="1">
                    <mxGeometry x="30" y="200" width="320" height="320" as="geometry"/>
                </mxCell>
                <mxCell id="48" value="" style="shape=singleArrow;direction=west;whiteSpace=wrap;html=1;fontFamily=Verdana;fontSize=12;" vertex="1" parent="1">
                    <mxGeometry x="375" y="320" width="100" height="60" as="geometry"/>
                </mxCell>
            </root>
        </mxGraphModel>
    </diagram>
</mxfile>